<?xml version="1.0" encoding="utf-8"?>
<!-- Generator: Adobe Illustrator 22.0.0, SVG Export Plug-In . SVG Version: 6.00 Build 0)  -->
<svg version="1.1" id="Layer_1" xmlns="http://www.w3.org/2000/svg" xmlns:xlink="http://www.w3.org/1999/xlink" x="0px" y="0px"
	 viewBox="0 0 2800 1800" style="enable-background:new 0 0 2800 1800;" xml:space="preserve">
<style type="text/css">
	.st0{fill:#231F20;}
	.st1{fill:#81C341;}
</style>
<g id="XMLID_896_">
	<g id="XMLID_906_">
		<path class="st0" d="M750.9,761.6H321c-5,0-9.1-4.1-9.1-9.1V433.4c0-5,4.1-9.1,9.1-9.1h430c5,0,9.1,4.1,9.1,9.1v319.1
			C760,757.6,756,761.6,750.9,761.6z M330.1,743.4h411.8V442.5H330.1V743.4z"/>
	</g>
	<g id="XMLID_905_">
		<path class="st0" d="M772.9,442.5H296.1c-5,0-9.1-4.1-9.1-9.1c0-5,4.1-9.1,9.1-9.1h476.8c5,0,9.1,4.1,9.1,9.1
			C782,438.4,777.9,442.5,772.9,442.5z"/>
	</g>
	<g id="XMLID_904_">
		<path class="st0" d="M772.9,761.6H296.1c-5,0-9.1-4.1-9.1-9.1s4.1-9.1,9.1-9.1h476.8c5,0,9.1,4.1,9.1,9.1S777.9,761.6,772.9,761.6
			z"/>
	</g>
	<g id="XMLID_900_">
		<g id="XMLID_903_">
			<path class="st1" d="M464.1,707.7h-58.5c-5,0-9.1-4.1-9.1-9.1V553.3c0-5,4.1-9.1,9.1-9.1h58.5c5,0,9.1,4.1,9.1,9.1v145.3
				C473.2,703.6,469.1,707.7,464.1,707.7z M414.7,689.5H455V562.4h-40.3V689.5z"/>
		</g>
		<g id="XMLID_902_">
			<path class="st1" d="M565.2,707.7h-58.5c-5,0-9.1-4.1-9.1-9.1V521.1c0-5,4.1-9.1,9.1-9.1h58.5c5,0,9.1,4.1,9.1,9.1v177.5
				C574.3,703.6,570.2,707.7,565.2,707.7z M515.8,689.5h40.3V530.2h-40.3V689.5z"/>
		</g>
		<g id="XMLID_901_">
			<path class="st1" d="M666.3,707.7h-58.5c-5,0-9.1-4.1-9.1-9.1V489.9c0-5,4.1-9.1,9.1-9.1h58.5c5,0,9.1,4.1,9.1,9.1v208.7
				C675.4,703.6,671.3,707.7,666.3,707.7z M616.9,689.5h40.3V499h-40.3V689.5z"/>
		</g>
	</g>
	<g id="XMLID_899_">
		<rect x="526.9" y="761.3" class="st0" width="18.2" height="38.7"/>
	</g>
	<g id="XMLID_898_">
		<path class="st0" d="M536,848.4c-16.5,0-29.9-13.4-29.9-29.9c0-16.5,13.4-29.9,29.9-29.9c16.5,0,29.9,13.4,29.9,29.9
			C565.8,835,552.4,848.4,536,848.4z M536,806.9c-6.4,0-11.7,5.2-11.7,11.7c0,6.4,5.2,11.7,11.7,11.7c6.4,0,11.7-5.2,11.7-11.7
			C547.6,812.1,542.4,806.9,536,806.9z"/>
	</g>
	<g id="XMLID_897_">
		<rect x="381.7" y="689.5" class="st1" width="310.1" height="18.2"/>
	</g>
</g>
<g id="XMLID_883_">
	<g id="XMLID_895_">
		<path class="st0" d="M1305.4,553.7h-413c-5,0-9.1-4.1-9.1-9.1v-91.8c0-5,4.1-9.1,9.1-9.1h413c5,0,9.1,4.1,9.1,9.1v91.8
			C1314.5,549.6,1310.4,553.7,1305.4,553.7z M901.4,535.5h394.8v-73.6H901.4V535.5z"/>
	</g>
	<g id="XMLID_894_">
		<path class="st0" d="M1305.4,645.4h-413c-5,0-9.1-4.1-9.1-9.1v-91.8c0-5,4.1-9.1,9.1-9.1h413c5,0,9.1,4.1,9.1,9.1v91.8
			C1314.5,641.4,1310.4,645.4,1305.4,645.4z M901.4,627.3h394.8v-73.6H901.4V627.3z"/>
	</g>
	<g id="XMLID_893_">
		<path class="st0" d="M1305.4,737.2h-413c-5,0-9.1-4.1-9.1-9.1v-91.8c0-5,4.1-9.1,9.1-9.1h413c5,0,9.1,4.1,9.1,9.1v91.8
			C1314.5,733.2,1310.4,737.2,1305.4,737.2z M901.4,719h394.8v-73.6H901.4V719z"/>
	</g>
	<g id="XMLID_892_">
		<path class="st0" d="M1305.4,829h-413c-5,0-9.1-4.1-9.1-9.1v-91.8c0-5,4.1-9.1,9.1-9.1h413c5,0,9.1,4.1,9.1,9.1v91.8
			C1314.5,824.9,1310.4,829,1305.4,829z M901.4,810.8h394.8v-73.6H901.4V810.8z"/>
	</g>
	<g id="XMLID_891_">
		
			<ellipse transform="matrix(0.455 -0.8905 0.8905 0.455 73.0967 1116.7936)" class="st1" cx="948.9" cy="498.7" rx="15.3" ry="15.3"/>
	</g>
	<g id="XMLID_890_">
		<circle class="st1" cx="948.9" cy="590.5" r="15.3"/>
	</g>
	<g id="XMLID_889_">
		
			<ellipse transform="matrix(0.3261 -0.9453 0.9453 0.3261 -5.4573 1356.8345)" class="st1" cx="948.9" cy="682.2" rx="15.3" ry="15.3"/>
	</g>
	<g id="XMLID_888_">
		
			<ellipse transform="matrix(0.455 -0.8905 0.8905 0.455 -172.0981 1266.8552)" class="st1" cx="948.9" cy="774" rx="15.3" ry="15.3"/>
	</g>
	<g id="XMLID_887_">
		<rect x="1160" y="489.6" class="st0" width="84.1" height="18.2"/>
	</g>
	<g id="XMLID_886_">
		<rect x="1160" y="581.4" class="st0" width="84.1" height="18.2"/>
	</g>
	<g id="XMLID_885_">
		<rect x="1160" y="673.2" class="st0" width="84.1" height="18.2"/>
	</g>
	<g id="XMLID_884_">
		<rect x="1160" y="764.9" class="st0" width="84.1" height="18.2"/>
	</g>
</g>
<g id="XMLID_863_">
	<g id="XMLID_872_">
		<g id="XMLID_875_">
			<path class="st0" d="M2068.7,651.1h-120.9c-2.8,0-5.5-1.3-7.2-3.6c-1.7-2.3-2.3-5.2-1.5-7.9c0.9-3.3,9.1-32.3,20.4-45.4
				c10.1-11.8,52.6-25.6,71.6-31.3l5-19.1l17.6,4.6l-6.3,24.1c-0.8,3.1-3.2,5.5-6.3,6.4c-28.6,8.3-62.7,21.1-67.9,27.2
				c-4.8,5.6-9.7,17.4-13,26.8h108.4V651.1z"/>
		</g>
		<g id="XMLID_874_">
			<path class="st0" d="M2189.5,651.1h-120.9v-18.2h108.5c-3.3-9.5-8.1-21.2-13-26.8c-5.3-6.1-39.3-18.8-67.9-27.2
				c-3.1-0.9-5.4-3.3-6.3-6.4l-6.3-24.1l17.6-4.6l5,19.1c19,5.7,61.5,19.5,71.6,31.3c11.3,13.1,19.5,42.1,20.4,45.4
				c0.8,2.7,0.2,5.7-1.5,7.9C2195,649.8,2192.4,651.1,2189.5,651.1z"/>
		</g>
		<g id="XMLID_873_">
			<path class="st0" d="M2068.7,569.9c-20.2,0-39.5-16.4-51.2-43.2c-10.3-2.8-17.9-10-21-20.1c-3.3-10.6-0.8-22.2,5.9-28.3
				c1.6-1.5,3.5-2.6,5.4-3.3c2.5-35.7,26.3-59.3,60.9-59.3c34.6,0,58.4,23.6,60.9,59.3c2,0.7,3.8,1.8,5.4,3.3l0,0
				c6.7,6.1,9.2,17.7,5.9,28.3c-3.1,10.2-10.7,17.3-21,20.1C2108.1,553.5,2088.8,569.9,2068.7,569.9z M2024.6,509.6
				c0.2,0,0.4,0,0.5,0c3.4,0.4,6.2,2.6,7.4,5.7c8.6,22,22.8,36.3,36.2,36.3c13.4,0,27.6-14.2,36.2-36.3c1.2-3.1,4.1-5.4,7.4-5.7
				c0.1,0,0.3,0,0.5,0c5.5-0.8,9.1-3.5,10.7-8.1c1.4-4.2,0.5-7.9-0.3-9.3c0,0-0.1,0-0.1,0c-2.8,0.8-5.7,0.2-8-1.6
				c-2.3-1.8-3.6-4.5-3.5-7.4l0-0.5c0-0.5,0-1.1,0-1.6c0-29.2-16.4-47.3-42.9-47.3c-26.5,0-42.9,18.1-42.9,47.3c0,0.5,0,1.1,0,1.6
				l0,0.5c0.1,2.9-1.2,5.6-3.5,7.4c-2.3,1.8-5.2,2.4-8,1.6c0,0-0.1,0-0.1,0c-0.8,1.4-1.7,5.1-0.3,9.3
				C2015.4,506.1,2019,508.8,2024.6,509.6z"/>
		</g>
	</g>
	<g id="XMLID_868_">
		<g id="XMLID_871_">
			<path class="st0" d="M2345.3,820.3h-120.9c-2.8,0-5.5-1.3-7.2-3.6c-1.7-2.3-2.3-5.2-1.5-7.9c0.9-3.3,9.1-32.3,20.4-45.4
				c10.1-11.8,52.6-25.5,71.6-31.3l5-19.1l17.6,4.6l-6.3,24.1c-0.8,3.1-3.2,5.5-6.3,6.4c-28.6,8.3-62.7,21.1-67.9,27.2
				c-4.9,5.6-9.7,17.3-13,26.8h108.5V820.3z"/>
		</g>
		<g id="XMLID_870_">
			<path class="st0" d="M2466.2,820.3h-120.9v-18.2h108.5c-3.3-9.5-8.1-21.2-13-26.8c-5.3-6.1-39.3-18.8-67.9-27.2
				c-3.1-0.9-5.4-3.3-6.3-6.4l-6.3-24.1l17.6-4.6l5,19.1c19,5.7,61.5,19.5,71.6,31.3c11.3,13.1,19.5,42.1,20.4,45.4
				c0.8,2.7,0.2,5.7-1.5,7.9C2471.7,819,2469,820.3,2466.2,820.3z"/>
		</g>
		<g id="XMLID_869_">
			<path class="st0" d="M2345.3,739.1c-20.2,0-39.5-16.4-51.2-43.2c-10.3-2.8-17.9-10-21-20.1c-3.3-10.6-0.8-22.2,5.9-28.3
				c1.6-1.5,3.5-2.6,5.4-3.3c2.5-35.7,26.3-59.3,60.9-59.3s58.4,23.6,60.9,59.3c2,0.7,3.8,1.8,5.4,3.3l0,0
				c6.7,6.1,9.2,17.7,5.9,28.3c-3.1,10.2-10.7,17.3-21,20.1C2384.8,722.7,2365.5,739.1,2345.3,739.1z M2301.2,678.9
				c0.2,0,0.4,0,0.5,0c3.3,0.4,6.2,2.6,7.4,5.7c8.6,22,22.8,36.3,36.2,36.3c13.4,0,27.6-14.2,36.2-36.3c1.2-3.1,4.1-5.4,7.4-5.7
				c0.1,0,0.4,0,0.5-0.1c5.4-0.7,9-3.5,10.6-8.1c1.4-4.2,0.5-7.9-0.3-9.3c0,0-0.1,0-0.1,0c-2.8,0.8-5.7,0.2-8-1.6
				c-2.3-1.8-3.6-4.5-3.5-7.4l0-0.4c0-0.6,0-1.1,0-1.7c0-29.2-16.4-47.3-42.9-47.3s-42.9,18.1-42.9,47.3c0,0.5,0,1.1,0,1.7l0,0.4
				c0.1,2.9-1.2,5.6-3.5,7.4c-2.3,1.8-5.2,2.4-8,1.6c0,0-0.1,0-0.1,0c-0.8,1.4-1.7,5.1-0.3,9.3
				C2292.1,675.4,2295.7,678.1,2301.2,678.9z M2399.5,661L2399.5,661L2399.5,661L2399.5,661z"/>
		</g>
	</g>
	<g id="XMLID_867_">
		<path class="st1" d="M2153.4,791.7h-24.8c-38.1,0-69.1-31-69.1-69.1v-39.2c0-5,4.1-9.1,9.1-9.1s9.1,4.1,9.1,9.1v39.2
			c0,28,22.8,50.9,50.9,50.9h24.8c5,0,9.1,4.1,9.1,9.1S2158.5,791.7,2153.4,791.7z"/>
	</g>
	<g id="XMLID_866_">
		<path class="st1" d="M2125.8,826.1c-2.1,0-4.2-0.7-6-2.2c-3.8-3.3-4.2-9-0.9-12.8l24.5-28.1l-24.2-25.4c-3.5-3.6-3.3-9.4,0.3-12.9
			c3.6-3.5,9.4-3.3,12.9,0.3l29.9,31.4c3.2,3.4,3.4,8.7,0.3,12.2l-29.9,34.4C2130.8,825,2128.3,826.1,2125.8,826.1z"/>
	</g>
	<g id="XMLID_865_">
		<path class="st1" d="M2345.3,560.7c-5,0-9.1-4.1-9.1-9.1v-39.2c0-28-22.8-50.9-50.9-50.9h-24.8c-5,0-9.1-4.1-9.1-9.1
			c0-5,4.1-9.1,9.1-9.1h24.8c38.1,0,69.1,31,69.1,69.1v39.2C2354.4,556.6,2350.3,560.7,2345.3,560.7z"/>
	</g>
	<g id="XMLID_864_">
		<path class="st1" d="M2288.2,492.9c-2.4,0-4.8-0.9-6.6-2.8l-29.9-31.4c-3.2-3.4-3.4-8.7-0.3-12.2l29.9-34.4
			c3.3-3.8,9-4.2,12.8-0.9c3.8,3.3,4.2,9,0.9,12.8l-24.5,28.1l24.2,25.4c3.5,3.6,3.3,9.4-0.3,12.9
			C2292.7,492.1,2290.5,492.9,2288.2,492.9z"/>
	</g>
</g>
<g id="XMLID_848_">
	<g id="XMLID_859_">
		<g id="XMLID_862_">
			<path class="st0" d="M533.3,1204.9h-93.3c-2.8,0-5.5-1.3-7.2-3.6c-1.7-2.3-2.3-5.2-1.5-7.9c0.7-2.6,7.2-25.4,16.2-35.8
				c7.9-9.1,38.2-19.3,55.2-24.4l3.6-13.6l17.6,4.6l-4.9,18.6c-0.8,3.1-3.2,5.5-6.3,6.4c-21.6,6.3-47.4,16-51.4,20.3
				c-2.9,3.4-6.1,10.4-8.6,17.3h80.8V1204.9z"/>
		</g>
		<g id="XMLID_861_">
			<path class="st0" d="M626.6,1204.9h-93.3v-18.2h80.8c-2.5-6.8-5.7-13.9-8.6-17.3c-4-4.4-29.8-14-51.4-20.3
				c-3.1-0.9-5.4-3.3-6.3-6.4l-4.9-18.6l17.6-4.6l3.6,13.6c17,5.1,47.3,15.3,55.2,24.4c9,10.4,15.5,33.3,16.2,35.8
				c0.8,2.7,0.2,5.7-1.5,7.9C632.1,1203.6,629.5,1204.9,626.6,1204.9z"/>
		</g>
		<g id="XMLID_860_">
			<path class="st0" d="M533.3,1142.3c-16.2,0-31.6-12.8-41-33.7c-8.1-2.6-14.2-8.5-16.7-16.6c-2.7-8.9-0.6-18.8,5.2-24
				c1.1-1,2.3-1.8,3.6-2.4c2.4-28,21.5-46.4,49-46.4c27.5,0,46.5,18.4,49,46.4c1.3,0.6,2.5,1.4,3.6,2.4c5.8,5.2,7.9,15.1,5.2,24
				c-2.5,8.1-8.6,14.1-16.7,16.6C564.9,1129.5,549.5,1142.3,533.3,1142.3z M499.6,1091.6l0.3,0c3.4,0.4,6.2,2.6,7.5,5.7
				c6.2,16,16.7,26.7,26,26.7c9.4,0,19.8-10.7,26-26.7c1.2-3.2,4.1-5.4,7.5-5.7c0.1,0,0.2,0,0.3,0c3.2-0.5,5.2-1.8,6.2-4.2
				c0.8-1.8,0.8-3.7,0.6-4.9c-2.2,0.1-4.3-0.6-6.1-1.9c-2.3-1.8-3.6-4.5-3.5-7.4l0-0.4c0-0.4,0-0.7,0-1.1c0-21.2-11.9-34.4-31-34.4
				c-19.1,0-31,13.2-31,34.4c0,0.4,0,0.8,0,1.2l0,0.3c0.1,2.9-1.2,5.6-3.5,7.4c-1.8,1.4-3.9,2-6.1,1.9c-0.2,1.2-0.2,3.1,0.6,4.9
				C494.4,1089.8,496.4,1091.2,499.6,1091.6z"/>
		</g>
	</g>
	<g id="XMLID_855_">
		<g id="XMLID_858_">
			<path class="st0" d="M391.2,1437.1H298c-2.8,0-5.5-1.3-7.2-3.6c-1.7-2.3-2.3-5.2-1.5-7.9c0.7-2.6,7.2-25.4,16.2-35.8
				c7.9-9.1,38.2-19.3,55.2-24.4l3.6-13.6l17.6,4.6l-4.9,18.6c-0.8,3.1-3.2,5.5-6.3,6.4c-21.6,6.3-47.4,16-51.4,20.3
				c-2.9,3.4-6.1,10.4-8.6,17.3h80.8V1437.1z"/>
		</g>
		<g id="XMLID_857_">
			<path class="st0" d="M484.5,1437.1h-93.3v-18.2H472c-2.5-6.8-5.7-13.9-8.6-17.3c-4-4.4-29.8-14-51.4-20.3
				c-3.1-0.9-5.4-3.3-6.3-6.4l-4.9-18.6l17.6-4.6l3.6,13.6c17,5.1,47.3,15.3,55.2,24.4c9,10.4,15.5,33.3,16.2,35.8
				c0.8,2.7,0.2,5.7-1.5,7.9C490,1435.8,487.4,1437.1,484.5,1437.1z"/>
		</g>
		<g id="XMLID_856_">
			<path class="st0" d="M391.2,1374.4c-16.2,0-31.6-12.8-41-33.7c-8.1-2.6-14.2-8.5-16.7-16.6c-2.7-8.9-0.6-18.8,5.2-24
				c1.1-1,2.3-1.8,3.6-2.4c2.4-28,21.5-46.4,49-46.4c27.5,0,46.5,18.4,49,46.4c1.3,0.6,2.5,1.4,3.6,2.4l0,0c5.8,5.2,7.9,15.1,5.2,24
				c-2.5,8.1-8.6,14.1-16.7,16.6C422.8,1361.6,407.4,1374.4,391.2,1374.4z M357.5,1323.8l0.3,0c3.4,0.4,6.2,2.6,7.5,5.7
				c6.2,16,16.6,26.7,26,26.7c9.4,0,19.8-10.7,26-26.7c1.2-3.2,4.1-5.4,7.5-5.7c0.1,0,0.2,0,0.3,0c3.2-0.5,5.2-1.8,6.2-4.2
				c0.8-1.8,0.8-3.7,0.6-4.9c-2.2,0.1-4.4-0.6-6.1-1.9c-2.3-1.8-3.6-4.5-3.5-7.4l0-0.3c0-0.4,0-0.8,0-1.2c0-21.2-11.9-34.4-31-34.4
				c-19.1,0-31,13.2-31,34.4c0,0.4,0,0.8,0,1.2l0,0.3c0.1,2.9-1.2,5.6-3.5,7.4c-1.8,1.4-4,2.1-6.1,1.9c-0.2,1.2-0.2,3.1,0.6,4.9
				C352.3,1322,354.3,1323.3,357.5,1323.8z"/>
		</g>
	</g>
	<g id="XMLID_851_">
		<g id="XMLID_854_">
			<path class="st0" d="M662.2,1437.1h-93.3c-2.8,0-5.5-1.3-7.2-3.6c-1.7-2.3-2.3-5.2-1.5-7.9c0.7-2.6,7.2-25.4,16.2-35.8
				c7.9-9.1,38.2-19.3,55.2-24.4l3.6-13.6l17.6,4.6l-4.9,18.6c-0.8,3.1-3.2,5.5-6.3,6.4c-21.6,6.3-47.4,16-51.4,20.3
				c-2.9,3.4-6.1,10.4-8.6,17.3h80.8V1437.1z"/>
		</g>
		<g id="XMLID_853_">
			<path class="st0" d="M755.4,1437.1h-93.3v-18.2h80.8c-2.5-6.8-5.7-13.9-8.6-17.3c-4-4.4-29.8-14-51.4-20.3
				c-3.1-0.9-5.4-3.3-6.3-6.4l-4.9-18.6l17.6-4.6l3.6,13.6c17,5.1,47.3,15.3,55.2,24.4c9,10.4,15.5,33.3,16.2,35.8
				c0.8,2.7,0.2,5.7-1.5,7.9C760.9,1435.8,758.3,1437.1,755.4,1437.1z"/>
		</g>
		<g id="XMLID_852_">
			<path class="st0" d="M662.2,1374.4c-16.2,0-31.6-12.8-41-33.7c-8.1-2.6-14.2-8.5-16.7-16.7c-2.7-8.9-0.6-18.8,5.2-24
				c1.1-1,2.3-1.8,3.6-2.4c2.4-28,21.5-46.4,49-46.4c27.5,0,46.5,18.4,49,46.4c1.3,0.6,2.5,1.4,3.6,2.4l0,0c5.8,5.2,7.9,15.1,5.2,24
				c-2.5,8.1-8.6,14.1-16.7,16.6C693.8,1361.6,678.3,1374.4,662.2,1374.4z M628.4,1323.8l0.3,0c3.4,0.4,6.2,2.6,7.5,5.7
				c6.2,16,16.7,26.7,26,26.7c9.4,0,19.8-10.7,26-26.7c1.2-3.2,4.1-5.4,7.5-5.7c0.1,0,0.2,0,0.3,0c3.2-0.5,5.2-1.8,6.2-4.2
				c0.8-1.8,0.8-3.7,0.6-4.9c-2.2,0.1-4.4-0.6-6.1-1.9c-2.3-1.8-3.6-4.5-3.5-7.4l0-0.3c0-0.4,0-0.8,0-1.2c0-21.2-11.9-34.4-31-34.4
				s-31,13.2-31,34.4c0,0.4,0,0.8,0,1.2l0,0.4c0.1,2.9-1.2,5.6-3.5,7.4c-1.8,1.4-4,2.1-6.1,1.9c-0.2,1.2-0.2,3.1,0.6,4.9
				C623.2,1322,625.2,1323.3,628.4,1323.8z"/>
		</g>
	</g>
	<g id="XMLID_850_">
		<path class="st1" d="M391.2,1225.5c-5,0-9.1-4.1-9.1-9.1v-115.1c0-5,4.1-9.1,9.1-9.1h56.1c5,0,9.1,4.1,9.1,9.1
			c0,5-4.1,9.1-9.1,9.1h-47v106.1C400.3,1221.4,396.3,1225.5,391.2,1225.5z"/>
	</g>
	<g id="XMLID_849_">
		<path class="st1" d="M679.9,1225.5c-5,0-9.1-4.1-9.1-9.1v-106.1h-47c-5,0-9.1-4.1-9.1-9.1c0-5,4.1-9.1,9.1-9.1h56.1
			c5,0,9.1,4.1,9.1,9.1v115.1C689,1221.4,684.9,1225.5,679.9,1225.5z"/>
	</g>
</g>
<g id="XMLID_789_">
	<g id="XMLID_795_">
		<g id="XMLID_796_">
			<g id="XMLID_799_">
				<path class="st0" d="M2127.8,1437.1h-180c-2.8,0-5.5-1.3-7.2-3.6c-1.7-2.3-2.3-5.2-1.5-7.9c0.5-1.9,13-46.8,29.4-65.9
					c14.9-17.3,83.8-39,107-45.9l8.1-30.9l17.6,4.6l-9.4,35.9c-0.8,3.1-3.2,5.5-6.3,6.4c-37.3,10.9-93.9,31-103.3,41.8
					c-8.7,10.1-17.2,32.2-22.2,47.3h167.7V1437.1z"/>
			</g>
			<g id="XMLID_798_">
				<path class="st0" d="M2307.8,1437.1h-180v-18.2h167.7c-5-15.1-13.4-37.2-22.2-47.3c-9.3-10.8-66-31-103.3-41.8
					c-3.1-0.9-5.4-3.3-6.3-6.4l-9.4-35.9l17.6-4.6l8.1,30.9c23.2,6.9,92.1,28.6,107,45.9c16.4,19,28.9,64,29.4,65.9
					c0.8,2.7,0.2,5.7-1.5,7.9C2313.3,1435.8,2310.6,1437.1,2307.8,1437.1z"/>
			</g>
			<g id="XMLID_797_">
				<path class="st0" d="M2127.8,1316.1c-28.7,0-56.4-24.2-73.1-63.6c-15-3.4-25.9-13.3-30.3-27.5c-4.3-14-1.1-29.7,7.5-37.5
					c2.7-2.4,5.9-4.1,9.4-4.8c2.4-52.4,36.5-87.2,86.4-87.2c49.9,0,84,34.8,86.4,87.2c3.5,0.7,6.7,2.4,9.4,4.8
					c8.7,7.8,11.8,23.6,7.5,37.5c-4.4,14.3-15.3,24.1-30.3,27.5C2184.2,1291.9,2156.5,1316.1,2127.8,1316.1z M2045.9,1200.3
					c-1.1,0-1.5,0.4-1.8,0.6c-2.6,2.3-4.9,10.3-2.3,18.7c1.9,6.2,6.9,13.9,19.8,15.7l0.6,0.1c3.4,0.4,6.2,2.6,7.4,5.7
					c13.4,34.5,36.2,56.9,58.1,56.9c21.9,0,44.6-22.3,58.1-56.9c1.2-3.1,4.1-5.4,7.4-5.7l0.7-0.1c12.9-1.8,17.9-9.5,19.8-15.7
					c2.6-8.4,0.3-16.3-2.3-18.7l0,0c-0.4-0.4-1.1-1-3.9-0.3c-2.8,0.8-5.7,0.2-8-1.6c-2.3-1.8-3.6-4.5-3.5-7.4l0-0.4
					c0-0.9,0.1-1.8,0.1-2.7c0-45.5-26.8-74.9-68.3-74.9c-41.5,0-68.3,29.4-68.3,74.9c0,0.8,0,1.7,0,2.5l0,0.7
					c0.1,2.9-1.2,5.6-3.5,7.4c-2.3,1.8-5.2,2.4-8,1.6C2047.2,1200.4,2046.5,1200.3,2045.9,1200.3z"/>
			</g>
		</g>
	</g>
	<g id="XMLID_790_">
		<g id="XMLID_792_">
			<g id="XMLID_793_">
				<path class="st0" d="M2341.4,1192.1c0-2.8,0.2-5.3,0.5-7.6c0.1-0.8,0.2-1.6,0.4-2.5c0.5-2.9,3.1-5.1,6.1-5.1h3.9
					c3.4,0,6.2,2.8,6.2,6.2l0,0c0,7,1.1,12.3,3.2,16c2.1,3.7,5.3,5.5,9.7,5.5c3.7,0,6.5-0.9,8.3-2.8c1.8-1.9,2.7-4.6,2.7-8.2
					c0-1.4-0.1-2.9-0.4-4.4c-0.3-1.5-0.8-3.1-1.4-4.9c-0.7-1.7-1.6-3.5-2.7-5.5c-1.2-2-2.6-4.1-4.4-6.3l-19.8-25.5
					c-3.6-4.6-6.3-9.2-8.4-13.8c-2-4.6-3-9.8-3-15.5c0-3.8,0.5-7.3,1.6-10.5c1.1-3.2,2.6-6.1,4.7-8.6c2-2.5,4.5-4.5,7.5-6.2
					c1.6-0.9,3.3-1.6,5.1-2.2c2.9-0.9,5-3.6,5-6.7v-4.6c0-3.9,3.1-7,7-7l0,0c3.9,0,7,3.1,7,7v4.8c0,3,2,5.7,4.8,6.6
					c2.1,0.7,3.9,1.5,5.5,2.6c2.8,1.8,5,3.9,6.7,6.4c1.7,2.4,2.9,5.1,3.6,7.9c0.7,2.8,1.1,5.7,1.1,8.5c0,2.8-0.2,5.3-0.6,7.6
					c-0.1,0.8-0.3,1.7-0.5,2.6c-0.5,2.9-3.1,5.1-6.1,5.1h-3.8c-3.4,0-6.2-2.8-6.2-6.2l0,0c0-6.8-1.1-12.1-3.2-15.7
					c-2.2-3.6-5.3-5.5-9.3-5.5c-3.7,0-6.4,1-8.3,3c-1.9,2-2.8,4.8-2.8,8.2c0,2.9,0.6,5.6,1.8,7.9c1.2,2.4,2.7,4.8,4.6,7.3l22.2,28.8
					c2.1,2.7,3.9,5.3,5.5,7.8c1.6,2.5,2.9,5,4,7.5c1.1,2.5,1.9,5.1,2.4,7.7c0.6,2.6,0.8,5.4,0.8,8.4c0,3.7-0.5,7.1-1.5,10.2
					c-1,3.1-2.5,5.9-4.4,8.3c-1.9,2.4-4.3,4.4-7,6c-1.5,0.9-3.1,1.6-4.8,2.2c-2.8,1-4.6,3.6-4.6,6.6v6.6c0,3.9-3.1,7-7,7l0,0
					c-3.9,0-7-3.1-7-7v-5.3c0-3.3-2.3-6.1-5.5-6.8c-2.4-0.6-4.5-1.4-6.4-2.3c-3.2-1.7-5.7-3.8-7.6-6.2c-1.9-2.5-3.2-5.2-4-8.2
					C2341.8,1198.3,2341.4,1195.2,2341.4,1192.1z"/>
			</g>
		</g>
		<g id="XMLID_791_">
			<path class="st1" d="M2280.9,1305.8c-1.6,0-3.2-0.4-4.7-1.3c-2.7-1.6-4.4-4.6-4.4-7.8v-45.9c-24.7-26.1-38.3-60-38.3-96.1
				c0-77,62.7-139.7,139.7-139.7s139.7,62.7,139.7,139.7s-62.7,139.7-139.7,139.7c-17.6,0-34.8-3.2-51.1-9.7l-37,19.9
				C2283.9,1305.4,2282.4,1305.8,2280.9,1305.8z M2373.3,1033.2c-67,0-121.5,54.5-121.5,121.5c0,32.5,12.6,63,35.6,85.9
				c1.7,1.7,2.7,4,2.7,6.4v34.4l27.3-14.7c2.4-1.3,5.4-1.4,7.9-0.4c15.2,6.5,31.4,9.9,48,9.9c67,0,121.5-54.5,121.5-121.5
				C2494.8,1087.7,2440.3,1033.2,2373.3,1033.2z"/>
		</g>
	</g>
</g>
<g id="XMLID_756_">
	<g id="XMLID_777_">
		<g id="XMLID_788_">
			<path class="st0" d="M1840.1,1373.6h-396.8c-13.2,0-23.9-10.7-23.9-23.9v-253.5c0-13.2,10.7-23.9,23.9-23.9h396.8
				c13.2,0,23.9,10.7,23.9,23.9v253.5C1864,1362.8,1853.3,1373.6,1840.1,1373.6z M1443.3,1090.5c-3.2,0-5.7,2.6-5.7,5.7v253.5
				c0,3.2,2.6,5.7,5.7,5.7h396.8c3.2,0,5.7-2.6,5.7-5.7v-253.5c0-3.2-2.6-5.7-5.7-5.7H1443.3z"/>
		</g>
		<g id="XMLID_780_">
			<g id="XMLID_786_">
				<path class="st0" d="M1666,1437.1c-5,0-9.1-4.1-9.1-9.1v-63.5c0-5,4.1-9.1,9.1-9.1c5,0,9.1,4.1,9.1,9.1v63.5
					C1675.1,1433,1671,1437.1,1666,1437.1z"/>
			</g>
			<g id="XMLID_781_">
				<path class="st0" d="M1617.4,1437.1c-5,0-9.1-4.1-9.1-9.1v-63.5c0-5,4.1-9.1,9.1-9.1s9.1,4.1,9.1,9.1v63.5
					C1626.5,1433,1622.4,1437.1,1617.4,1437.1z"/>
			</g>
		</g>
		<g id="XMLID_779_">
			<path class="st0" d="M1690.2,1437.1h-99.7c-5,0-9.1-4.1-9.1-9.1c0-5,4.1-9.1,9.1-9.1h99.7c5,0,9.1,4.1,9.1,9.1
				C1699.3,1433,1695.3,1437.1,1690.2,1437.1z"/>
		</g>
		<g id="XMLID_778_">
			<rect x="1428.5" y="1308.3" class="st0" width="426.4" height="18.2"/>
		</g>
	</g>
	<g id="XMLID_776_">
		<path class="st1" d="M1641.2,1159.8C1641.2,1159.8,1641.1,1159.8,1641.2,1159.8c-2.6,0-5.1-1.1-6.8-3l-31.8-35.3
			c-3.4-3.7-3.1-9.5,0.7-12.8c3.7-3.4,9.5-3.1,12.8,0.7l25.1,27.9l26-28c3.4-3.7,9.2-3.9,12.9-0.5c3.7,3.4,3.9,9.2,0.5,12.9
			l-32.8,35.3C1646.1,1158.8,1643.7,1159.8,1641.2,1159.8z"/>
	</g>
	<g id="XMLID_773_">
		<g id="XMLID_774_">
			<path class="st0" d="M1620.6,1258c0-1.9,0.1-3.7,0.3-5.3c0.1-0.6,0.2-1.1,0.3-1.7c0.4-2,2.1-3.5,4.2-3.5h2.7
				c2.4,0,4.3,1.9,4.3,4.3l0,0c0,4.8,0.7,8.5,2.2,11c1.5,2.5,3.7,3.8,6.7,3.8c2.6,0,4.5-0.7,5.7-1.9c1.3-1.3,1.9-3.2,1.9-5.7
				c0-1-0.1-2-0.3-3c-0.2-1.1-0.5-2.2-1-3.4c-0.5-1.2-1.1-2.4-1.9-3.8c-0.8-1.4-1.8-2.8-3.1-4.4l-13.7-17.6
				c-2.5-3.2-4.4-6.3-5.8-9.5c-1.4-3.2-2.1-6.8-2.1-10.7c0-2.6,0.4-5,1.1-7.2c0.7-2.2,1.8-4.2,3.2-5.9c1.4-1.7,3.1-3.1,5.1-4.3
				c1.1-0.6,2.2-1.1,3.5-1.5c2-0.6,3.4-2.5,3.4-4.6v-3.2c0-2.7,2.2-4.8,4.8-4.8l0,0c2.7,0,4.8,2.2,4.8,4.8v3.3
				c0,2.1,1.4,3.9,3.3,4.6c1.4,0.5,2.7,1.1,3.8,1.8c1.9,1.2,3.5,2.7,4.7,4.4c1.2,1.7,2,3.5,2.5,5.5c0.5,2,0.8,3.9,0.8,5.9
				c0,1.9-0.1,3.7-0.4,5.3c-0.1,0.6-0.2,1.2-0.3,1.8c-0.4,2-2.1,3.5-4.2,3.5h-2.6c-2.4,0-4.3-1.9-4.3-4.3l0,0
				c0-4.7-0.7-8.3-2.2-10.8c-1.5-2.5-3.6-3.8-6.4-3.8c-2.5,0-4.4,0.7-5.7,2.1c-1.3,1.4-1.9,3.3-1.9,5.6c0,2,0.4,3.8,1.2,5.5
				c0.8,1.6,1.9,3.3,3.2,5.1l15.3,19.9c1.4,1.9,2.7,3.7,3.8,5.4c1.1,1.7,2,3.5,2.8,5.2c0.7,1.7,1.3,3.5,1.7,5.3
				c0.4,1.8,0.6,3.8,0.6,5.8c0,2.6-0.4,4.9-1.1,7.1c-0.7,2.1-1.7,4.1-3.1,5.7c-1.3,1.7-3,3-4.9,4.2c-1,0.6-2.1,1.1-3.3,1.5
				c-1.9,0.7-3.2,2.5-3.2,4.5v4.6c0,2.7-2.2,4.8-4.8,4.8h0c-2.7,0-4.8-2.2-4.8-4.8v-3.7c0-2.3-1.6-4.2-3.8-4.7
				c-1.7-0.4-3.1-0.9-4.4-1.6c-2.2-1.2-3.9-2.6-5.2-4.3c-1.3-1.7-2.2-3.6-2.8-5.7C1620.9,1262.4,1620.6,1260.2,1620.6,1258z"/>
		</g>
	</g>
	<g id="XMLID_762_">
		<g id="XMLID_770_">
			<g id="XMLID_771_">
				<path class="st0" d="M1502.4,1231.1c0-2.6,0.2-4.9,0.5-7.1c0.1-0.8,0.2-1.5,0.4-2.3c0.5-2.7,2.9-4.7,5.7-4.7h3.7
					c3.2,0,5.7,2.6,5.7,5.7l0,0c0,6.5,1,11.5,2.9,14.9c2,3.4,5,5.1,9,5.1c3.5,0,6-0.9,7.7-2.6c1.7-1.8,2.6-4.3,2.6-7.7
					c0-1.3-0.1-2.7-0.4-4.1c-0.3-1.4-0.7-2.9-1.3-4.5c-0.6-1.6-1.5-3.3-2.6-5.1c-1.1-1.8-2.5-3.8-4.1-5.9l-18.4-23.8
					c-3.3-4.3-5.9-8.5-7.8-12.9c-1.9-4.3-2.8-9.1-2.8-14.4c0-3.5,0.5-6.8,1.5-9.8c1-3,2.5-5.7,4.3-8c1.9-2.3,4.2-4.2,6.9-5.7
					c1.5-0.8,3-1.5,4.7-2c2.7-0.9,4.6-3.4,4.6-6.2v-4.3c0-3.6,2.9-6.5,6.5-6.5l0,0c3.6,0,6.5,2.9,6.5,6.5v4.5c0,2.8,1.8,5.3,4.5,6.2
					c1.9,0.6,3.6,1.4,5.1,2.4c2.6,1.7,4.7,3.7,6.3,5.9c1.6,2.3,2.7,4.7,3.4,7.4c0.7,2.6,1,5.3,1,8c0,2.6-0.2,4.9-0.6,7.1
					c-0.1,0.8-0.3,1.6-0.4,2.5c-0.5,2.7-2.9,4.7-5.7,4.7h-3.5c-3.2,0-5.7-2.6-5.7-5.7l0,0c0-6.4-1-11.2-3-14.6
					c-2-3.4-4.9-5.1-8.7-5.1c-3.4,0-6,0.9-7.7,2.8c-1.8,1.9-2.6,4.4-2.6,7.6c0,2.7,0.5,5.2,1.6,7.4s2.5,4.5,4.3,6.8l20.7,26.8
					c1.9,2.5,3.6,5,5.1,7.3c1.5,2.3,2.7,4.7,3.8,7c1,2.3,1.8,4.7,2.3,7.2c0.5,2.5,0.8,5.1,0.8,7.8c0,3.5-0.5,6.6-1.4,9.5
					c-1,2.9-2.3,5.5-4.1,7.7c-1.8,2.2-4,4.1-6.6,5.6c-1.4,0.8-2.9,1.5-4.4,2c-2.6,0.9-4.3,3.4-4.3,6.1v6.2c0,3.6-2.9,6.5-6.5,6.5
					l0,0c-3.6,0-6.5-2.9-6.5-6.5v-5c0-3.1-2.2-5.7-5.2-6.4c-2.2-0.5-4.2-1.3-5.9-2.2c-2.9-1.6-5.3-3.5-7-5.8c-1.8-2.3-3-4.8-3.8-7.6
					C1502.8,1236.9,1502.4,1234,1502.4,1231.1z"/>
			</g>
		</g>
		<g id="XMLID_763_">
			<g id="XMLID_764_">
				<path class="st0" d="M1724.1,1231.1c0-2.6,0.2-4.9,0.5-7.1c0.1-0.8,0.2-1.5,0.4-2.3c0.5-2.7,2.9-4.7,5.7-4.7h3.7
					c3.2,0,5.7,2.6,5.7,5.7l0,0c0,6.5,1,11.5,2.9,14.9c2,3.4,5,5.1,9,5.1c3.5,0,6-0.9,7.7-2.6c1.7-1.8,2.6-4.3,2.6-7.7
					c0-1.3-0.1-2.7-0.4-4.1c-0.3-1.4-0.7-2.9-1.3-4.5c-0.6-1.6-1.5-3.3-2.6-5.1c-1.1-1.8-2.5-3.8-4.1-5.9l-18.4-23.8
					c-3.3-4.3-5.9-8.5-7.8-12.9c-1.9-4.3-2.8-9.1-2.8-14.4c0-3.5,0.5-6.8,1.5-9.8c1-3,2.5-5.7,4.3-8c1.9-2.3,4.2-4.2,6.9-5.7
					c1.5-0.8,3-1.5,4.7-2c2.7-0.9,4.6-3.4,4.6-6.2v-4.3c0-3.6,2.9-6.5,6.5-6.5l0,0c3.6,0,6.5,2.9,6.5,6.5v4.5c0,2.8,1.8,5.3,4.5,6.2
					c1.9,0.6,3.6,1.4,5.1,2.4c2.6,1.7,4.7,3.7,6.3,5.9c1.6,2.3,2.7,4.7,3.4,7.4c0.7,2.6,1,5.3,1,8c0,2.6-0.2,4.9-0.6,7.1
					c-0.1,0.8-0.3,1.6-0.4,2.5c-0.5,2.7-2.9,4.7-5.7,4.7h-3.5c-3.2,0-5.7-2.6-5.7-5.7l0,0c0-6.4-1-11.2-3-14.6
					c-2-3.4-4.9-5.1-8.7-5.1c-3.4,0-6,0.9-7.7,2.8c-1.8,1.9-2.6,4.4-2.6,7.6c0,2.7,0.5,5.2,1.6,7.4c1.1,2.2,2.5,4.5,4.3,6.8
					l20.7,26.8c1.9,2.5,3.6,5,5.1,7.3c1.5,2.3,2.7,4.7,3.8,7c1,2.3,1.8,4.7,2.3,7.2c0.5,2.5,0.8,5.1,0.8,7.8c0,3.5-0.5,6.6-1.4,9.5
					c-1,2.9-2.3,5.5-4.1,7.7c-1.8,2.2-4,4.1-6.6,5.6c-1.4,0.8-2.9,1.5-4.4,2c-2.6,0.9-4.3,3.4-4.3,6.1v6.2c0,3.6-2.9,6.5-6.5,6.5
					l0,0c-3.6,0-6.5-2.9-6.5-6.5v-5c0-3.1-2.2-5.7-5.2-6.4c-2.2-0.5-4.2-1.3-5.9-2.2c-2.9-1.6-5.3-3.5-7-5.8c-1.8-2.3-3-4.8-3.8-7.6
					C1724.5,1236.9,1724.1,1234,1724.1,1231.1z"/>
			</g>
		</g>
	</g>
	<g id="XMLID_757_">
		<path class="st1" d="M1641.2,1159.8c-5,0-9.1-4.1-9.1-9.1v-130.6c0-5,4.1-9.1,9.1-9.1s9.1,4.1,9.1,9.1v130.6
			C1650.3,1155.8,1646.2,1159.8,1641.2,1159.8z"/>
	</g>
</g>
<g>
	<g id="XMLID_845_">
		<g id="XMLID_846_">
			<path class="st0" d="M1066.4,1245.3c0-3.1,0.2-6,0.5-8.6c0.1-0.9,0.3-1.8,0.4-2.8c0.6-3.3,3.5-5.7,6.8-5.7h4.4
				c3.8,0,6.9,3.1,6.9,6.9l0,0c0,7.8,1.2,13.8,3.5,17.9c2.4,4.1,6,6.2,10.9,6.2c4.2,0,7.3-1.1,9.3-3.2c2.1-2.1,3.1-5.2,3.1-9.2
				c0-1.6-0.2-3.2-0.5-4.9c-0.3-1.7-0.8-3.5-1.6-5.4c-0.8-1.9-1.8-4-3.1-6.2c-1.3-2.2-3-4.6-5-7.1l-22.2-28.6
				c-4-5.1-7.1-10.3-9.4-15.5c-2.3-5.2-3.4-11-3.4-17.4c0-4.2,0.6-8.1,1.8-11.8c1.2-3.6,3-6.8,5.2-9.6c2.3-2.8,5.1-5.1,8.4-6.9
				c1.8-1,3.7-1.8,5.7-2.4c3.3-1.1,5.6-4,5.6-7.5v-5.2c0-4.3,3.5-7.9,7.9-7.9l0,0c4.3,0,7.9,3.5,7.9,7.9v5.4c0,3.4,2.2,6.4,5.4,7.5
				c2.3,0.8,4.4,1.7,6.2,2.9c3.1,2,5.6,4.4,7.6,7.1c1.9,2.7,3.3,5.7,4.1,8.9c0.8,3.2,1.2,6.4,1.2,9.6c0,3.1-0.2,6-0.7,8.6
				c-0.2,1-0.3,1.9-0.5,3c-0.6,3.3-3.5,5.7-6.8,5.7h-4.2c-3.8,0-6.9-3.1-6.9-6.9l0,0c0-7.7-1.2-13.5-3.6-17.6
				c-2.4-4.1-5.9-6.1-10.5-6.1c-4.1,0-7.2,1.1-9.3,3.4c-2.1,2.3-3.2,5.3-3.2,9.2c0,3.3,0.7,6.2,2,8.9c1.3,2.7,3.1,5.4,5.2,8.2
				l24.9,32.3c2.3,3,4.4,6,6.2,8.8c1.8,2.8,3.3,5.6,4.5,8.4c1.2,2.8,2.1,5.7,2.7,8.7c0.6,3,0.9,6.1,0.9,9.4c0,4.2-0.6,8-1.7,11.5
				c-1.2,3.5-2.8,6.6-5,9.3c-2.2,2.7-4.8,5-7.9,6.8c-1.7,1-3.4,1.8-5.3,2.5c-3.1,1.1-5.1,4.1-5.1,7.4v7.4c0,4.3-3.5,7.9-7.9,7.9l0,0
				c-4.3,0-7.9-3.5-7.9-7.9v-6c0-3.7-2.6-6.8-6.2-7.7c-2.7-0.6-5.1-1.5-7.1-2.6c-3.5-1.9-6.4-4.2-8.5-7c-2.1-2.8-3.6-5.8-4.5-9.2
				C1066.9,1252.3,1066.4,1248.9,1066.4,1245.3z"/>
		</g>
	</g>
	<g>
		<path class="st0" d="M1100.7,1345.8c-78.6,0-142.6-64-142.6-142.6c0-78.6,64-142.6,142.6-142.6s142.6,64,142.6,142.6
			C1243.2,1281.8,1179.3,1345.8,1100.7,1345.8z M1100.7,1078.8c-68.6,0-124.4,55.8-124.4,124.4s55.8,124.4,124.4,124.4
			s124.4-55.8,124.4-124.4S1169.3,1078.8,1100.7,1078.8z"/>
	</g>
	<g>
		<path class="st1" d="M1037.6,1394.6c-1,0-2-0.2-3-0.5c-81.3-28.1-135.9-104.8-135.9-190.9c0-111.3,90.6-201.9,201.9-201.9
			c5,0,9.1,4.1,9.1,9.1s-4.1,9.1-9.1,9.1c-101.3,0-183.7,82.4-183.7,183.7c0,78.3,49.7,148.1,123.7,173.7c4.7,1.6,7.3,6.8,5.6,11.6
			C1044.9,1392.3,1041.4,1394.6,1037.6,1394.6z"/>
	</g>
	<g>
		<path class="st1" d="M1086.6,1045.9c-2.6,0-5.1-1.1-6.9-3.2c-3.3-3.8-2.8-9.6,1-12.8l23.7-20.2l-24.3-25
			c-3.5-3.6-3.4-9.4,0.2-12.9c3.6-3.5,9.4-3.4,12.9,0.2l31,31.9c1.8,1.8,2.7,4.3,2.6,6.8c-0.1,2.5-1.3,4.9-3.2,6.5l-31,26.5
			C1090.8,1045.2,1088.7,1045.9,1086.6,1045.9z"/>
	</g>
	<g>
		<path class="st1" d="M1100.7,1405.1c-5,0-9.1-4.1-9.1-9.1s4.1-9.1,9.1-9.1c101.3,0,183.7-82.4,183.7-183.7
			c0-79.3-50.5-149.4-125.7-174.4c-4.8-1.6-7.3-6.7-5.8-11.5c1.6-4.8,6.7-7.3,11.5-5.8c82.6,27.5,138.1,104.5,138.1,191.7
			C1302.6,1314.6,1212,1405.1,1100.7,1405.1z"/>
	</g>
	<g>
		<path class="st1" d="M1114.7,1437.1c-2.4,0-4.7-0.9-6.5-2.8l-31-31.9c-1.8-1.8-2.7-4.3-2.6-6.8c0.1-2.5,1.3-4.9,3.2-6.5l31-26.5
			c3.8-3.3,9.6-2.8,12.8,1c3.3,3.8,2.8,9.6-1,12.8l-23.7,20.2l24.3,25c3.5,3.6,3.4,9.4-0.2,12.9
			C1119.3,1436.2,1117,1437.1,1114.7,1437.1z"/>
	</g>
</g>
<g>
	<g id="XMLID_67_">
		<g id="XMLID_69_">
			<g id="XMLID_70_">
				<path class="st0" d="M1507.4,804.3c-0.6,0-1.3-0.1-1.9-0.2c-2.4-0.5-4.5-2-5.8-4.1l-39.3-62.5c-1.3-2-1.7-4.5-1.2-6.9
					c0.5-2.4,2-4.4,4-5.7l69.7-43.6c18.7-11.7,40.2-17.8,62.2-17.8h23.9c7.5,0,14.9,1.9,21.4,5.4c7,3.8,20.7,10.1,33.9,10.1h56.1
					c6.8,0,12.9,2.8,17.2,7.4l45.9-31.4c8.2-5.6,19-4.8,26.3,2c4.3,4,6.8,9.7,6.7,15.6c-0.1,5.9-2.6,11.5-7,15.5l-63.9,57.1
					c-0.7,0.7-1.6,1.2-2.5,1.6l-27.8,11.7c-29.7,12.5-61.1,18.9-93.3,18.9h-63.5c-11.9,0-23.4,3.5-33.4,10.1l-22.7,15.1
					C1510.9,803.8,1509.2,804.3,1507.4,804.3z M1480.6,735.6l29.5,46.9l14.9-10c12.9-8.6,27.9-13.2,43.4-13.2h63.5
					c29.8,0,58.8-5.9,86.2-17.4l26.4-11.1l62.7-56.1c0.8-0.7,1-1.6,1-2.1c0-0.5-0.1-1.4-0.9-2.1c-1-0.9-2.5-1-3.6-0.3l-49.6,34
					c-0.5,11.1-8.7,20.4-19.8,22.3l-89.6,15.3c-4.9,0.8-9.7-2.5-10.5-7.4c-0.8-5,2.5-9.7,7.4-10.5l89.6-15.3
					c2.7-0.5,4.7-2.8,4.7-5.5c0-3.1-2.5-5.6-5.6-5.6h-56.1c-16.3,0-32.1-6.7-42.6-12.3c-3.8-2.1-8.2-3.2-12.7-3.2h-23.9
					c-18.6,0-36.8,5.2-52.6,15.1L1480.6,735.6z"/>
			</g>
		</g>
		<g id="XMLID_68_">
			<path class="st0" d="M1484.4,830.1c-3.1,0-6.1-1.6-7.8-4.5l-50.1-84.4c-1.3-2.2-1.6-4.8-0.9-7.2c0.7-2.4,2.4-4.4,4.6-5.6
				l27.2-13.9c4.2-2.1,9.3-0.7,11.8,3.3l52.2,83.1c1.4,2.2,1.7,4.8,1.1,7.2c-0.7,2.5-2.3,4.5-4.6,5.7l-29.4,15.2
				C1487.2,829.8,1485.8,830.1,1484.4,830.1z M1447.1,740.3l40.7,68.7l13-6.7l-42.5-67.7L1447.1,740.3z"/>
		</g>
	</g>
	<g>
		<path class="st0" d="M1518.7,710.1c-2.2,0-4.5-0.8-6.2-2.5c-1-0.9-24.8-23.7-24.6-67.9c0.2-56.5,38.1-120,112.6-188.8
			c1.7-1.6,3.9-2.4,6.2-2.4h28.1c5,0,9.1,4.1,9.1,9.1s-4.1,9.1-9.1,9.1h-24.5c-85.8,80-104,138.2-104.1,173.1
			c-0.1,36.4,18.7,54.4,18.9,54.5c3.7,3.4,3.9,9.2,0.4,12.9C1523.5,709.2,1521.1,710.1,1518.7,710.1z"/>
	</g>
	<g>
		<path class="st0" d="M1750.6,710.1c-2.4,0-4.9-1-6.6-2.9c-3.4-3.7-3.2-9.4,0.4-12.8c0.8-0.8,19.3-19,18.9-55.3
			c-0.3-34.8-18.8-92.8-104.1-172.4h-24.5c-5,0-9.1-4.1-9.1-9.1s4.1-9.1,9.1-9.1h28.1c2.3,0,4.5,0.9,6.2,2.4
			c74.5,68.8,112.4,132.3,112.6,188.8c0.1,44.2-23.6,66.9-24.6,67.9C1755.1,709.3,1752.8,710.1,1750.6,710.1z"/>
	</g>
	<g>
		<path class="st0" d="M1606.6,466.8c-3.2,0-6.4-1.7-8-4.8c-13.7-25.3-35.9-70.1-31-85.1c5.3-16,23.5-11.8,36.9-8.8
			c7,1.6,14.8,3.4,20,2.7c3.7-0.5,8.7-1.7,14-3c19.3-4.6,45.7-11,55.8,7.6c10.2,18.7-13.1,66.7-23.5,86.5c-2.4,4.4-7.9,6.1-12.3,3.8
			c-4.4-2.4-6.1-7.9-3.8-12.3c15.8-29.9,27.1-62.9,23.6-69.3c-3.5-6.4-23.6-1.5-35.6,1.4c-5.8,1.4-11.2,2.7-15.9,3.3
			c-8.4,1.1-17.5-1-26.4-3c-4.7-1.1-12.3-2.8-15.5-2.5c0.1,9.3,15.1,42.9,29.7,70c2.4,4.4,0.7,9.9-3.7,12.3
			C1609.5,466.4,1608,466.8,1606.6,466.8z"/>
	</g>
	<g>
		<path class="st1" d="M1677.3,466.8h-84.6c-5,0-9.1-4.1-9.1-9.1s4.1-9.1,9.1-9.1h84.6c5,0,9.1,4.1,9.1,9.1
			S1682.3,466.8,1677.3,466.8z"/>
	</g>
	<g>
		<path class="st1" d="M1645.5,523.7c-0.8,0-1.7-0.1-2.6-0.4c-4.8-1.4-7.6-6.5-6.2-11.3c6.5-22.4-9.7-49.3-9.9-49.6
			c-2.7-4.3-1.4-9.9,2.9-12.5c4.3-2.7,9.9-1.4,12.5,2.9c0.9,1.4,20.8,33.8,11.9,64.3C1653.1,521.1,1649.5,523.7,1645.5,523.7z"/>
	</g>
	<g>
		<path class="st1" d="M1673.4,505.7c-2.2,0-4.5-0.8-6.3-2.5l-35.9-34c-3.6-3.5-3.8-9.2-0.3-12.9c3.5-3.6,9.2-3.8,12.9-0.3l35.9,34
			c3.6,3.5,3.8,9.2,0.3,12.9C1678.2,504.7,1675.8,505.7,1673.4,505.7z"/>
	</g>
	<g id="XMLID_1_">
		<g id="XMLID_2_">
			<path class="st0" d="M1612.4,619.4c0-2,0.1-3.9,0.4-5.7c0.1-0.6,0.2-1.2,0.3-1.8c0.4-2.2,2.3-3.8,4.5-3.8h2.9
				c2.5,0,4.6,2.1,4.6,4.6l0,0c0,5.2,0.8,9.1,2.3,11.8c1.6,2.7,4,4.1,7.2,4.1c2.8,0,4.8-0.7,6.2-2.1c1.4-1.4,2-3.4,2-6.1
				c0-1-0.1-2.1-0.3-3.3c-0.2-1.1-0.6-2.3-1.1-3.6c-0.5-1.3-1.2-2.6-2-4.1c-0.9-1.5-2-3-3.3-4.7l-14.7-18.9
				c-2.6-3.4-4.7-6.8-6.2-10.2c-1.5-3.4-2.2-7.3-2.2-11.5c0-2.8,0.4-5.4,1.2-7.8c0.8-2.4,2-4.5,3.5-6.4c1.5-1.8,3.4-3.4,5.5-4.6
				c1.2-0.6,2.4-1.2,3.8-1.6c2.2-0.7,3.7-2.7,3.7-5v-3.4c0-2.9,2.3-5.2,5.2-5.2l0,0c2.9,0,5.2,2.3,5.2,5.2v3.6
				c0,2.2,1.5,4.2,3.6,4.9c1.5,0.5,2.9,1.1,4.1,1.9c2.1,1.3,3.7,2.9,5,4.7c1.3,1.8,2.2,3.8,2.7,5.9c0.5,2.1,0.8,4.2,0.8,6.3
				c0,2-0.1,3.9-0.4,5.7c-0.1,0.6-0.2,1.3-0.3,2c-0.4,2.2-2.3,3.8-4.5,3.8h-2.8c-2.5,0-4.6-2.1-4.6-4.6l0,0c0-5.1-0.8-8.9-2.4-11.6
				c-1.6-2.7-3.9-4.1-6.9-4.1c-2.7,0-4.8,0.8-6.2,2.3c-1.4,1.5-2.1,3.5-2.1,6.1c0,2.2,0.4,4.1,1.3,5.9s2,3.6,3.4,5.4l16.5,21.3
				c1.5,2,2.9,3.9,4.1,5.8c1.2,1.9,2.2,3.7,3,5.6c0.8,1.9,1.4,3.8,1.8,5.7c0.4,2,0.6,4,0.6,6.2c0,2.8-0.4,5.3-1.1,7.6
				c-0.8,2.3-1.9,4.4-3.3,6.1c-1.4,1.8-3.2,3.3-5.2,4.5c-1.1,0.6-2.3,1.2-3.5,1.6c-2,0.7-3.4,2.7-3.4,4.9v4.9c0,2.9-2.3,5.2-5.2,5.2
				l0,0c-2.9,0-5.2-2.3-5.2-5.2v-4c0-2.4-1.7-4.5-4.1-5.1c-1.8-0.4-3.3-1-4.7-1.7c-2.3-1.3-4.2-2.8-5.6-4.6c-1.4-1.8-2.4-3.9-3-6.1
				C1612.7,624,1612.4,621.7,1612.4,619.4z"/>
		</g>
	</g>
</g>
</svg>
